<svg width="800" height="600" viewBox="0 0 800 600" fill="none" xmlns="http://www.w3.org/2000/svg">
<g clip-path="url(#clip0_805_227)">
<rect width="800" height="600" fill="url(#paint0_linear_805_227)"/>
<path d="M389.896 120H297V184.752H344.854V201.65L361.742 184.752H389.896V120Z" fill="#070A17"/>
<path d="M353.168 143.546H316.57V145.499H353.168V143.546Z" fill="white"/>
<path d="M353.168 157.624H316.57V159.576H353.168V157.624Z" fill="white"/>
<path d="M187.964 379.966L313.34 322.562C330.813 314.567 335.889 292.134 323.56 277.394L258.647 199.805L78.6948 276.352L152.901 371.391C161.197 382.029 175.704 385.551 187.964 379.943V379.966Z" fill="#080717"/>
<path d="M265.409 84.5803L96.6506 133.433C85.9902 136.515 78.6663 146.272 78.6663 157.349V276.352L258.62 199.805L283.161 101.683C285.826 91.046 275.954 81.5212 265.409 84.5803Z" fill="#080717"/>
<path d="M248.588 199.064L271.531 104.418L96.7472 156.584V265.622L248.588 199.064Z" fill="#FBBA9F"/>
<path d="M289.301 282.91L281.723 282.818C279.661 282.818 278.108 284.672 278.525 286.688L278.804 288.055C280.125 294.706 286.15 299.341 292.917 298.947C299.359 298.576 306.103 298.159 306.497 298.09L308.352 289.654L289.325 282.91H289.301Z" fill="#A08474"/>
<path d="M292.131 301.288C292.432 301.288 292.733 301.288 293.058 301.265C306.337 300.5 306.707 300.407 306.985 300.338C307.866 300.152 308.561 299.457 308.77 298.576L310.624 290.141C310.879 289.005 310.23 287.846 309.141 287.452L290.114 280.708C289.883 280.616 289.628 280.569 289.373 280.569L281.795 280.477C280.103 280.477 278.527 281.195 277.461 282.493C276.395 283.791 275.955 285.483 276.302 287.128L276.581 288.495C278.064 295.934 284.692 301.265 292.177 301.265L292.131 301.288ZM304.599 295.911C303 296.027 299.639 296.236 292.779 296.63C287.194 296.977 282.166 293.061 281.077 287.591L280.798 286.224C280.729 285.853 280.891 285.575 280.984 285.459C281.076 285.343 281.308 285.135 281.679 285.135L288.863 285.204L305.596 291.137L304.552 295.911H304.599Z" fill="#080717"/>
<path d="M494.078 447.335L374.312 384.531L370.21 329.885C368.773 310.766 360.406 292.829 346.664 279.434L337.417 270.419L314.891 261.635C311.67 267.452 312.111 274.613 316.027 279.99L316.328 280.384L314.427 280.453L277.811 256.328C275.587 254.868 272.574 255.656 271.346 258.02L270.627 259.434C268.194 264.161 269.701 269.955 274.127 272.898L306.409 294.405L305.876 317.069L270.766 288.982L258.623 282.122C255.541 280.384 251.624 281.45 249.862 284.509C248.148 287.475 249.028 291.23 251.879 293.13L261.728 299.665L282.424 326.687L282.794 327.475C289.074 340.638 289.7 355.818 284.485 369.444L274.937 337.232C274.033 334.172 271.925 331.623 269.074 330.186C266.363 328.796 263.234 328.541 260.337 329.422L257.325 330.349L264.532 374.334C267.73 393.848 280.685 410.394 298.854 418.181L412.203 512.294L494.078 447.289V447.335Z" fill="#A08474"/>
<path d="M412.204 514.658C412.876 514.658 413.524 514.38 413.988 513.824C414.799 512.85 414.66 511.367 413.687 510.556L300.34 416.443C300.177 416.304 299.969 416.188 299.76 416.095C282.217 408.587 269.887 392.851 266.805 374.01L259.922 332.017L261.011 331.67C263.352 330.951 265.832 331.16 268.01 332.272C270.258 333.431 271.973 335.494 272.692 337.927L282.24 370.14C282.518 371.09 283.375 371.762 284.372 371.785C285.392 371.878 286.272 371.229 286.619 370.302C292.019 356.142 291.394 340.175 284.858 326.502L284.487 325.714C284.418 325.575 284.325 325.436 284.233 325.297L263.537 298.275C263.375 298.066 263.19 297.904 262.982 297.765L253.132 291.23C251.301 290.025 250.745 287.591 251.834 285.691C252.97 283.744 255.496 283.049 257.466 284.161L269.447 290.929L304.395 318.9C305.09 319.457 306.017 319.572 306.828 319.202C307.616 318.831 308.149 318.043 308.172 317.162L308.705 294.497C308.705 293.709 308.335 292.968 307.686 292.504L275.403 270.998C271.973 268.704 270.791 264.208 272.668 260.523L273.386 259.109C273.665 258.553 274.152 258.159 274.755 257.997C275.357 257.835 275.983 257.951 276.493 258.275L313.108 282.4C313.502 282.655 313.989 282.794 314.453 282.771L316.353 282.701C317.21 282.678 317.975 282.168 318.369 281.404C318.74 280.639 318.671 279.712 318.161 279.017L317.859 278.623C314.892 274.544 314.245 269.214 316.029 264.579L336.098 272.389L344.997 281.079C358.346 294.08 366.457 311.461 367.848 330.047L371.949 384.694C372.019 385.482 372.482 386.2 373.177 386.571L492.945 449.375C494.081 449.977 495.471 449.537 496.074 448.401C496.676 447.266 496.235 445.875 495.1 445.273L376.468 383.071L372.459 329.7C370.976 310.001 362.378 291.554 348.218 277.765L338.972 268.75C338.74 268.542 338.485 268.356 338.207 268.24L315.68 259.457C314.591 259.04 313.387 259.457 312.807 260.5C310.212 265.181 309.725 270.65 311.231 275.61L279.018 254.382C277.396 253.316 275.403 252.991 273.549 253.478C271.672 253.965 270.119 255.239 269.238 256.954L268.521 258.368C265.554 264.138 267.407 271.207 272.807 274.799L304.024 295.61L303.63 312.319L272.181 287.151C272.181 287.151 271.973 287.012 271.88 286.942L259.737 280.083C255.566 277.742 250.212 279.202 247.825 283.327C245.508 287.336 246.713 292.481 250.56 295.03L260.085 301.357L280.409 327.869L280.664 328.425C285.554 338.669 286.852 350.279 284.465 361.264L277.141 336.536C276.052 332.898 273.503 329.816 270.12 328.078C266.852 326.409 263.144 326.085 259.645 327.174L256.631 328.101C255.519 328.448 254.847 329.538 255.032 330.696L262.239 374.682C265.553 394.983 278.786 411.97 297.627 420.151L410.721 514.055C411.161 514.403 411.671 514.588 412.204 514.588V514.658Z" fill="#080717"/>
<path d="M343.323 299.967L346.312 296.421L323.763 277.441L316.115 278.09L316.51 282.701L322.257 282.215L343.323 299.967Z" fill="#080717"/>
<path d="M324.762 312.273L329.281 311.253L322.908 283.026L315.631 278.484L313.174 282.423L318.83 285.946L324.762 312.273Z" fill="#080717"/>
<path d="M199.369 527.011L169.892 476.675L188.014 459.479C201.015 444.277 206.902 424.254 204.214 404.416L200.088 373.895C199.787 370.372 195.824 368.472 192.904 370.442L191.004 371.716C187.249 374.242 185.117 378.553 185.372 383.049L186.833 408.472C186.949 410.534 184.283 411.484 183.078 409.792C175.685 399.526 172.163 386.965 173.136 374.335L173.275 366.571L201.757 341.404C204.608 338.576 205.209 334.196 203.239 330.697L202.614 329.585C201.27 327.198 198.141 326.572 195.986 328.24L158.628 357.325L157.447 381.032C154.388 379.387 152.556 376.143 152.742 372.666L153.692 355.146L182.614 331.925C187.991 327.591 188.755 319.689 184.306 314.405C182.498 312.273 179.324 311.995 177.192 313.779L171.073 318.901C171.351 314.938 169.799 311.068 166.856 308.426L165.047 306.781L132.858 334.683L132.487 333.362C131.491 329.909 129.104 327.035 125.906 325.413L122.87 323.884L105.211 352.157L106.67 485.226L105.998 517.254L199.44 526.987L199.369 527.011Z" fill="#A08474"/>
<path d="M199.368 529.328C199.762 529.328 200.179 529.235 200.527 529.003C201.639 528.354 202.01 526.941 201.361 525.828L172.81 477.092L189.589 461.148C189.589 461.148 189.704 461.032 189.751 460.962C203.169 445.273 209.264 424.555 206.506 404.091L202.381 373.57C202.196 371.206 200.712 369.097 198.488 368.008C196.24 366.942 193.667 367.104 191.604 368.495L189.704 369.769C185.301 372.736 182.752 377.857 183.053 383.164L184.467 407.73C177.723 398.043 174.525 386.27 175.452 374.497L175.567 367.614L203.284 343.118C206.946 339.48 207.711 333.941 205.254 329.538L204.629 328.426C203.655 326.711 201.987 325.482 200.064 325.112C198.14 324.718 196.124 325.204 194.571 326.409L157.213 355.494C156.68 355.911 156.356 356.537 156.333 357.209L155.429 375.331C155.151 374.52 155.011 373.663 155.058 372.782L155.962 356.305L184.072 333.733C187.178 331.253 189.078 327.707 189.472 323.744C189.843 319.781 188.638 315.934 186.089 312.922C183.47 309.839 178.812 309.422 175.707 312.018L172.972 314.312C172.253 311.415 170.678 308.773 168.407 306.711L166.599 305.065C165.741 304.277 164.421 304.277 163.54 305.042L133.946 330.697C132.509 327.545 130.052 324.949 126.947 323.373L123.911 321.844C122.845 321.311 121.524 321.658 120.898 322.678L103.239 350.951C103.007 351.322 102.892 351.762 102.892 352.203L104.351 485.273L103.679 517.231C103.656 518.505 104.676 519.571 105.95 519.594C107.225 519.618 108.291 518.598 108.314 517.323L108.986 485.296L107.549 352.829L123.725 326.942L124.861 327.522C127.48 328.843 129.45 331.23 130.261 334.057L130.632 335.378C130.841 336.143 131.443 336.722 132.207 336.954C132.949 337.186 133.783 337 134.386 336.49L165.023 309.932L165.324 310.187C167.758 312.389 169.01 315.517 168.778 318.785C168.708 319.712 169.218 320.592 170.029 321.01C170.864 321.427 171.859 321.311 172.578 320.732L178.72 315.61C179.879 314.636 181.617 314.799 182.59 315.934C184.351 317.997 185.162 320.639 184.908 323.327C184.653 326.015 183.331 328.449 181.222 330.14L152.3 353.362C151.79 353.779 151.466 354.381 151.443 355.053L150.493 372.574C150.261 376.93 152.579 381.055 156.426 383.118C157.121 383.489 157.978 383.489 158.65 383.095C159.346 382.701 159.785 381.982 159.832 381.194L160.968 358.553L197.468 330.117C197.978 329.723 198.58 329.584 199.206 329.7C199.832 329.816 200.342 330.187 200.643 330.743L201.269 331.855C202.706 334.428 202.265 337.695 200.179 339.781L171.79 364.856C171.304 365.297 171.026 365.899 171.003 366.548L170.863 374.312C169.844 387.313 173.529 400.453 181.246 411.159C182.404 412.759 184.42 413.384 186.274 412.735C188.128 412.087 189.31 410.302 189.194 408.355L187.734 382.933C187.526 379.248 189.287 375.702 192.347 373.663L194.246 372.388C195.243 371.716 196.171 372.04 196.541 372.226C196.889 372.388 197.747 372.921 197.839 374.103L201.986 404.74C204.582 423.836 198.881 443.21 186.39 457.88L168.36 475.006C167.572 475.748 167.41 476.93 167.967 477.857L197.468 528.192C197.908 528.934 198.673 529.328 199.461 529.328H199.368Z" fill="#080717"/>
<path d="M136.563 380.546L138.487 347.846L172.484 320.755L169.588 317.116L133.969 345.505L131.928 380.291L136.563 380.546Z" fill="#080717"/>
<path d="M120.639 375.749L122.91 345.807L134.266 336.514L131.322 332.922L118.461 343.466L116.004 375.401L120.639 375.749Z" fill="#080717"/>
<path d="M304.185 298.136L308.82 298.02L308.705 293.177L290.605 280.987L288.009 284.834L304.116 295.679L304.185 298.136Z" fill="#080717"/>
<path d="M506.778 194.544C478.031 194.544 454.727 175.235 454.727 151.416C454.727 127.597 478.031 108.288 506.778 108.288C535.524 108.288 558.828 127.597 558.828 151.416C558.828 175.235 535.524 194.544 506.778 194.544Z" fill="#080717"/>
<path d="M593.891 434.589L491.249 393.801L488.886 290.581L584.713 288.379L593.891 434.589Z" fill="#A08474"/>
<path d="M593.889 436.906C594.376 436.906 594.839 436.744 595.256 436.466C595.905 436.002 596.253 435.238 596.207 434.45L587.03 288.24C586.96 286.989 585.871 285.992 584.666 286.062L488.838 288.24C487.563 288.263 486.544 289.329 486.567 290.604L488.931 393.824C488.931 394.751 489.533 395.586 490.39 395.933L593.054 436.721C593.332 436.837 593.611 436.883 593.912 436.883L593.889 436.906ZM582.534 290.743L591.34 431.089L493.495 392.225L491.224 292.852L582.51 290.766L582.534 290.743Z" fill="#080717"/>
<path d="M561.167 326.108C583.206 319.086 602.858 303.675 615.025 281.45C639.613 236.537 623.716 181.798 580.773 157.001C510.321 116.33 464.482 174.22 459.453 188.473C458.271 191.81 457.135 195.031 455.976 198.16C453.45 203.166 451.411 208.287 449.835 213.478C444.945 224.185 439.569 231.856 432.107 234.405C420.682 238.322 426.869 326.849 493.08 320.337L561.167 326.085V326.108Z" fill="#A08474"/>
<path d="M561.169 328.425C561.4 328.425 561.632 328.379 561.863 328.309C585.409 320.824 605.016 304.555 617.066 282.562C642.095 236.838 626.66 180.825 581.933 155.008C555.259 139.62 529.396 136.376 505.016 145.368C478.365 155.217 460.753 177.812 457.253 187.731C456.094 191.022 454.958 194.197 453.846 197.279C451.343 202.262 449.258 207.453 447.658 212.69C442.421 224.162 437.369 230.187 431.343 232.25C424.368 234.637 423.766 252.528 427.219 268.449C430.556 283.86 437.508 297.533 446.754 306.942C458.852 319.248 474.518 324.555 493.267 322.701C494.541 322.585 495.468 321.45 495.352 320.175C495.237 318.9 494.077 317.95 492.826 318.089C447.31 322.562 434.564 280.477 431.737 267.475C427.728 249.052 430.718 237.348 432.827 236.63C440.173 234.104 446.06 227.267 451.9 214.475C451.946 214.382 451.969 214.289 452.015 214.197C453.568 209.121 455.561 204.092 457.994 199.249C458.041 199.179 458.063 199.087 458.11 198.994C459.245 195.865 460.404 192.621 461.586 189.284C463.973 182.517 479.686 159.666 506.592 149.724C529.605 141.219 554.17 144.348 579.593 159.041C622.119 183.583 636.765 236.885 612.964 280.361C601.493 301.311 582.837 316.792 560.427 323.929C559.199 324.323 558.526 325.621 558.92 326.849C559.245 327.846 560.149 328.472 561.122 328.472L561.169 328.425Z" fill="#080717"/>
<path d="M596.833 141.497C567.772 125.599 533.913 126.573 505.941 141.034C514.632 143.12 523.16 146.271 531.294 150.721C586.497 180.941 603.669 255.795 569.672 317.904C567.795 321.357 565.755 324.671 563.646 327.892C592.267 322.562 618.641 304.532 634.006 276.467C660.68 227.731 644.04 167.291 596.856 141.474L596.833 141.497Z" fill="#080717"/>
<path d="M499.66 134.753C499.66 134.753 507.377 161.01 529.324 173.756C540.934 180.5 518.687 178.368 520.379 192.18C533.171 295.586 541.399 315.123 541.399 315.123C543.346 323.999 550.83 330.58 559.869 331.368L587.123 333.709L595.697 308.68L609.602 200.871C609.602 200.871 553.658 120.153 499.614 134.73L499.66 134.753Z" fill="#080717"/>
<path d="M564.084 235.842C558.36 229.793 549.925 227.846 542.463 230.048C549.23 243.119 550.921 258.043 547.654 272.041C553.239 272.273 558.917 270.349 563.297 266.178C571.894 258.02 572.242 244.44 564.108 235.842H564.084Z" fill="#A08474"/>
<path d="M446.2 278.715C446.2 278.715 446.362 278.715 446.454 278.715C455.678 277.696 460.359 269.329 460.545 268.982C461.171 267.869 460.754 266.456 459.618 265.83C458.506 265.227 457.091 265.622 456.466 266.734C456.396 266.873 452.665 273.339 445.921 274.103C444.647 274.243 443.743 275.378 443.882 276.653C444.021 277.835 445.017 278.715 446.176 278.715H446.2Z" fill="#080717"/>
<path d="M485.919 208.217C487.054 208.217 488.051 207.383 488.214 206.201C488.793 201.868 485.989 196.051 481.4 192.018C476.441 187.685 470.392 186.201 464.389 187.847C463.161 188.194 462.42 189.469 462.768 190.697C463.115 191.926 464.39 192.667 465.618 192.32C471.62 190.674 476.162 193.617 478.341 195.518C482.049 198.762 483.95 203.189 483.625 205.576C483.463 206.85 484.343 208.009 485.618 208.171C485.71 208.171 485.826 208.171 485.919 208.171V208.217Z" fill="#080717"/>
<path d="M466.221 220.616C464.622 222.887 462.004 223.791 460.359 222.632C458.736 221.474 458.713 218.716 460.312 216.445C461.911 214.174 464.53 213.27 466.175 214.428C467.797 215.587 467.82 218.368 466.221 220.616Z" fill="#080717"/>
<path d="M523.857 182.887C523.857 182.887 486.568 210.071 491.226 229.515C495.884 248.935 530.068 252.829 526.198 286.247C522.304 319.665 516.766 336.049 476.279 338.135C422.282 340.893 402.653 390.371 402.653 420.684C402.653 450.996 540.959 376.397 540.959 376.397C540.959 376.397 588.352 327.452 523.857 182.934V182.887Z" fill="#080717"/>
<path d="M702.648 612.201L603.437 374.172L486.59 377.788C458.942 378.645 431.921 386.177 407.819 399.734L217.439 506.802L103.766 512.178C84.183 563.418 127.288 616.697 181.494 608.238L406.267 573.221L416.07 613.568L702.648 612.224V612.201Z" fill="white"/>
<path d="M416.074 615.885C416.259 615.885 416.444 615.885 416.63 615.816C417.881 615.514 418.646 614.263 418.345 613.012L408.542 572.664C408.264 571.506 407.128 570.741 405.923 570.926L181.151 605.943C156.516 609.79 132.461 600.497 116.794 581.123C101.43 562.143 97.2351 537.3 105.439 514.403L217.581 509.096C217.952 509.096 218.3 508.98 218.602 508.795L408.959 401.727C432.643 388.402 459.503 380.916 486.664 380.082L601.912 376.513L700.521 613.081C701.007 614.263 702.375 614.819 703.557 614.333C704.739 613.846 705.295 612.479 704.808 611.297L605.597 373.268C605.226 372.388 604.323 371.785 603.396 371.855L486.548 375.47C458.645 376.328 431.045 384.021 406.711 397.695L216.817 504.507L103.677 509.861C102.75 509.907 101.94 510.486 101.615 511.344C92.1137 536.187 96.4468 563.371 113.179 584.043C129.911 604.715 155.589 614.611 181.869 610.532L404.533 575.839L413.826 614.124C414.08 615.19 415.031 615.885 416.074 615.885Z" fill="#080717"/>
<path d="M551.065 126.943C576.696 113.734 666.845 140.918 656.741 232.621C651.712 278.205 641.191 346.849 655.189 370.14C669.163 393.454 705.687 418.32 687.819 436.953C669.951 455.608 572.037 466.477 558.828 452.503C545.618 438.505 501.332 392.666 551.83 307.985C602.328 223.304 550.277 181.335 544.831 178.229C539.385 175.124 513.428 146.318 551.041 126.943H551.065Z" fill="#080717"/>
<path d="M566.659 500.243C524.703 500.243 490.691 466.232 490.691 424.276C490.691 382.321 524.703 348.309 566.659 348.309C608.614 348.309 642.625 382.321 642.625 424.276C642.625 466.232 608.614 500.243 566.659 500.243Z" fill="#080717"/>
<path d="M645.525 492.549C603.569 492.549 569.558 458.537 569.558 416.582C569.558 374.627 603.569 340.615 645.525 340.615C687.48 340.615 721.492 374.627 721.492 416.582C721.492 458.537 687.48 492.549 645.525 492.549Z" fill="#080717"/>
<path d="M664.941 384.462C641.147 384.462 621.859 365.173 621.859 341.38C621.859 317.586 641.147 298.298 664.941 298.298C688.734 298.298 708.023 317.586 708.023 341.38C708.023 365.173 688.734 384.462 664.941 384.462Z" fill="#080717"/>
<path d="M434.001 70.0298V131.961H418.294V148.859L401.405 131.961H366.438V70.0298H434.001Z" fill="#FBBA9F"/>
<path d="M407.473 96.3403H396.883V119.028H407.473V96.3403Z" fill="#080717"/>
<path d="M408.156 119.728H396.164V95.6392H408.156V119.728ZM397.573 118.326H406.761V97.0409H397.573V118.326Z" fill="#080717"/>
<path d="M399.898 95.6392H392.336V97.0409H399.898V95.6392Z" fill="#080717"/>
<path d="M412 118.325H404.438V119.727H412V118.325Z" fill="#080717"/>
<path d="M399.562 118.325H392V119.727H399.562V118.325Z" fill="#080717"/>
<path d="M402.386 91.7186C405.683 91.1831 407.922 88.0769 407.387 84.7793C406.852 81.4817 403.745 79.2424 400.448 79.7778C397.15 80.3126 394.911 83.4196 395.446 86.7172C395.981 90.0148 399.088 92.2541 402.386 91.7186Z" fill="#080717"/>
<path d="M401.406 92.5058C397.684 92.5058 394.656 89.4781 394.656 85.7564C394.656 82.0348 397.684 79 401.406 79C405.127 79 408.155 82.0278 408.155 85.7494C408.155 89.471 405.127 92.5058 401.406 92.5058ZM401.406 80.4017C398.455 80.4017 396.058 82.7987 396.058 85.7494C396.058 88.7001 398.455 91.0971 401.406 91.0971C404.356 91.0971 406.753 88.7001 406.753 85.7494C406.753 82.7987 404.356 80.4017 401.406 80.4017Z" fill="#080717"/>
</g>
<defs>
<linearGradient id="paint0_linear_805_227" x1="800" y1="-2.71726e-05" x2="-91.6189" y2="391.164" gradientUnits="userSpaceOnUse">
<stop stop-color="#6B2E61"/>
<stop offset="1" stop-color="#30112B"/>
</linearGradient>
<clipPath id="clip0_805_227">
<rect width="800" height="600" fill="white"/>
</clipPath>
</defs>
</svg>
